PathFileType	4	(X/Y/Z)	31_2_rein_108_p1_0-227_filt_butterworth.trc
DataRate	CameraRate	NumFrames	NumMarkers	Units	OrigDataRate	OrigDataStartFrame	OrigNumFrames
44.0	44.0	7	27	m	44.0	28	227
Frame#	Time	RHip			RKnee			RAnkle			RBigToe			RSmallToe			RHeel			LHip			LKnee			LAnkle			LBigToe			LSmallToe			LHeel			Neck			Head			Nose			RShoulder			RElbow			RWrist			RThumb			RIndex			RPinky			LShoulder			LElbow			LWrist			LThumb			LIndex			LPinky			
		X1	Y1	Z1	X2	Y2	Z2	X3	Y3	Z3	X4	Y4	Z4	X5	Y5	Z5	X6	Y6	Z6	X7	Y7	Z7	X8	Y8	Z8	X9	Y9	Z9	X10	Y10	Z10	X11	Y11	Z11	X12	Y12	Z12	X13	Y13	Z13	X14	Y14	Z14	X15	Y15	Z15	X16	Y16	Z16	X17	Y17	Z17	X18	Y18	Z18	X19	Y19	Z19	X20	Y20	Z20	X21	Y21	Z21	X22	Y22	Z22	X23	Y23	Z23	X24	Y24	Z24	X25	Y25	Z25	X26	Y26	Z26	X27	Y27	Z27	
28	0.6363636363636364	0.18585492209045423	0.4473388827607867	0.8228186310516994	0.1175209775146312	0.0041643975477779205	0.8310620710676564	0.08655288436036424	-0.47927355047763925	0.9132017446367091	0.06395140399499392	-0.43744820880712554	0.6707381096365332	0.12306244755833519	-0.48623391913324265	0.7382238733781868	0.07811242252083117	-0.5405321009897811	0.9508778390803476	-0.020993443172721556	0.4486144285048786	0.8806509964493222	-0.03308988990868846	-0.015212019357800255	0.8935104385777676	-0.06030677665609212	-0.45349045726417514	0.922636880767992	-0.07820471728899361	-0.43077809214467266	0.695238675757033	-0.12483201024446094	-0.4638522687542909	0.7764669756401366	-0.03521857060733346	-0.5550005979859114	0.9934981707537622	0.12149724119440211	1.1011813359645937	0.833646958443474	0.11237867002326211	1.3635522533631503	0.8222617883847678	0.10433909502707159	1.242008681658525	0.7365417899936203	0.29357291877539143	0.9938728268918144	0.7954628321086556	0.3671537576321106	0.6940437987102349	0.8302306887591937	0.2514401093246345	0.6220195865378937	0.5868429574392486	0.1595624009539593	0.6597825275761353	0.4992740169974455	0.14987066477276012	0.6288938626921794	0.5060117971799525	0.15392801539028567	0.5742009172886996	0.542063612441323	-0.052006728716900756	1.0134296849334354	0.8769468120136628	-0.18987207061981343	0.764179956995225	0.8710648495234549	-0.12003465672768443	0.6459664343593695	0.6494879706806393	-0.03566054505492076	0.6503168645765026	0.6068095459124245	-0.0337968232591777	0.6164331410831645	0.5818832927933036	-0.046897353827083585	0.5832237206421994	0.5864809345982421	
29	0.6590909090909091	0.18662250608605477	0.44640547406002373	0.8224846616071492	0.117872856715244	0.004310425470211154	0.830570020308163	0.08699527590216327	-0.47908134844511985	0.9116167212766147	0.06377863418428739	-0.43698532410779434	0.6704664905343659	0.12307404088963783	-0.48710081562598995	0.7383282995710286	0.07786176081263152	-0.5401998530982147	0.9499006380524085	-0.019008019991045004	0.449521355426797	0.876413548770564	-0.032658242503623924	-0.014820556714279565	0.8927208752922617	-0.06029072765645745	-0.4531116393965812	0.9227650672063292	-0.07862987083816222	-0.42945939874100986	0.6927074934193821	-0.12486809839647624	-0.463952922077835	0.7764294865846905	-0.03583780430050106	-0.5538594538749237	0.9925382396226079	0.12317615086285207	1.1012584109405665	0.8318767674262062	0.11677595820916807	1.3635155417571485	0.8120482357402157	0.10715484747567108	1.238759431720327	0.7277749064521308	0.2944025268452233	0.9942401167651902	0.7937198384589614	0.3771306433979307	0.6960372065699281	0.8220620678279038	0.2578952708456097	0.6505661257047054	0.5795273635173961	0.1785146912127355	0.706936519274705	0.4895765111104471	0.16444178650253005	0.6793687092144489	0.4962808520870675	0.15598690774363466	0.6176397583624537	0.5449781673667369	-0.050073297495537086	1.0152427122434586	0.8752644099249232	-0.19213090385989445	0.7673232253059491	0.8717292885414789	-0.1236732091531155	0.6749744250292877	0.6510338124931966	-0.04356616088779122	0.6942796432609994	0.5981812788817721	-0.0440897020386712	0.6623635833524959	0.5747065729897141	-0.05046582773288731	0.6246369549004364	0.581738486486712	
30	0.6818181818181818	0.18751662404068517	0.44551240992366814	0.8220540403547836	0.11836995767243882	0.004478526251553094	0.8299694849538224	0.08741668732726388	-0.4787675069338543	0.9100440675299811	0.06352443453000511	-0.4362855106152052	0.6701016580497651	0.12299946275483534	-0.48763967028730326	0.7382874898835956	0.0776822794659332	-0.5400155155126342	0.9491402933161618	-0.017035275839083975	0.45024630752836453	0.8730290060969919	-0.03223450477799384	-0.014383913977051577	0.8915738831362451	-0.06031817264654992	-0.45271619926153595	0.922839191391194	-0.0792190497578134	-0.4277525830732632	0.6900291641574505	-0.12488309706506388	-0.4640039297943056	0.7764174163440922	-0.03652767306471245	-0.5528651471893127	0.9915911914003587	0.1245971453556739	1.1013182134581292	0.8283447746943587	0.12177026566295943	1.3631640381173042	0.7995759400441498	0.10978774206473729	1.234691765013266	0.7197644672705843	0.2956481884079545	0.9945620300129776	0.7915656279513068	0.3854881107564737	0.6978994288077572	0.8103722597336565	0.26162940234891285	0.6791118407794791	0.5746648326921322	0.1917204021072689	0.7505215756512932	0.49024905068071134	0.1749927050373042	0.7267937935940888	0.4906332029374045	0.1553559668268467	0.659962642068016	0.5514802997887108	-0.048086816207766184	1.0164590981210704	0.8727666724845782	-0.19373745259715996	0.7689525928506831	0.871050124163343	-0.1244106091481328	0.7030114895799755	0.6515131480611709	-0.04879058363576633	0.736310036875868	0.5909668947608802	-0.05009782396790538	0.7055037076800148	0.5711212167850559	-0.048573580404460234	0.6626550891959203	0.5839127810318914	
31	0.7045454545454546	0.18868085743794055	0.44479658883013456	0.8217344300438278	0.11898282090992401	0.004702075838390385	0.8292577890740856	0.08780680082913449	-0.47832443850413325	0.9085062171810979	0.06326451449002801	-0.4354807922444617	0.6697574031794904	0.12283820869958953	-0.48771778414898714	0.7381373139976873	0.07756812569566386	-0.5398637919502465	0.9485598067405747	-0.015091276465429012	0.4508755508942415	0.8705084525300439	-0.03179727946173159	-0.013803559077448846	0.8899647380622842	-0.06038247839967551	-0.4522641356831434	0.92285819629483	-0.07982674356338175	-0.42606555072840957	0.6876932876174079	-0.12487926754500514	-0.46400529574574106	0.7764333094385056	-0.03711298187314451	-0.5523223696108442	0.99094287852937	0.1268459663744928	1.1009245709160973	0.8233178558778362	0.127194945223084	1.3623230490813034	0.7859116917316072	0.11206964017858861	1.2303223118007898	0.7129797280571805	0.2974977802654465	0.9945250410500598	0.7888229139253752	0.3916762282412396	0.6996685829985421	0.7961264102751657	0.2619251060087758	0.7064393991662946	0.5725722423030818	0.19792066489473417	0.7876638376101948	0.5016716488087399	0.18156758112803606	0.7697460865148283	0.490916112927745	0.15447563558535218	0.699891013979607	0.5589162276614765	-0.04579611736896734	1.016785789626563	0.8689747279248954	-0.19494482820154999	0.7691916932175978	0.8688286036461753	-0.12199771182209809	0.7289558048785724	0.6513471265588503	-0.051123516196335594	0.7747267205486917	0.5863671275968018	-0.052171726536685045	0.7439902267611372	0.5718836177676704	-0.04289278506084073	0.6976562381104848	0.5923200366967372	
32	0.7272727272727273	0.19015191716138008	0.4442284338617103	0.8215512024671705	0.11960434580714664	0.004992909218055286	0.8283048129176513	0.0881647439549289	-0.47784849391199063	0.9070143422954854	0.06306373452488248	-0.43488959079632883	0.669553516655054	0.12266016795150333	-0.48750675889581835	0.7380116658190369	0.0774816154980642	-0.5397931911742485	0.9481087778300973	-0.013221559480724501	0.45153496436132584	0.8685823389257739	-0.03129286510930037	-0.013055755538530056	0.8878619606996527	-0.06047212276478582	-0.45176736670055945	0.922827890605607	-0.08020124123679556	-0.4251963220279382	0.6867236602068312	-0.12486296412361286	-0.46396361034864525	0.7764542528333904	-0.03744384167976741	-0.552295303492828	0.9906603323072188	0.13000171381519093	1.0998920146097317	0.8169222700930041	0.13269468088715913	1.3608188298579766	0.7726340748525385	0.11410446498936616	1.2264000881097954	0.7072015860384824	0.29958434453806143	0.9939068028969039	0.7861077137659304	0.3959898704008924	0.7013222914970942	0.7808372157819461	0.25948978784619503	0.7309915129830432	0.5729145907266888	0.19750333581329488	0.8165559468198775	0.5215202086423782	0.18445236140469762	0.8067572014945438	0.49812404010926703	0.15470641113456685	0.7360332573443547	0.564707997931994	-0.04310601127636016	1.0163457657682733	0.8641284130784315	-0.1955324546559684	0.7684711626599277	0.8649525187948466	-0.11641171476873834	0.7514317966470156	0.65124111070776	-0.05040440990358887	0.8079676296713776	0.5848469541972151	-0.05107827938382215	0.7766799163384857	0.5750516580903992	-0.03506419101906976	0.7291259025031508	0.6030651788072959	
33	0.75	0.19175882847770254	0.4435843689574746	0.8216720182563748	0.12011410827851646	0.005324523393909875	0.8270711906509781	0.08847570992512603	-0.4773978088703315	0.9055881728302144	0.06296977309516989	-0.4348181729207649	0.6695582186096501	0.12255639010748973	-0.48733493842261144	0.737983834916277	0.07739877149745626	-0.5399268019839587	0.9478065734223114	-0.011395470162557443	0.45229509537928475	0.8670047864767878	-0.03067248921065248	-0.012112992923076438	0.8852246807364021	-0.06057532458094884	-0.45125624555857524	0.922744451331834	-0.08022148307416105	-0.4255525346864893	0.687696941970864	-0.12484278584885689	-0.4638728689009575	0.776447735005684	-0.0375467039787798	-0.5524998470468299	0.9906012728663199	0.13322009810068847	1.0982973494579675	0.809036597134219	0.13780251428883997	1.358489745361734	0.7614391523224577	0.11615414248237521	1.223168134986283	0.7022805168818664	0.3015216610191804	0.992384921487417	0.7837243387854866	0.3985808164706931	0.7023569577580518	0.7663080333693947	0.2558673842448929	0.7519547188176527	0.5739730005200774	0.1924537025470539	0.8380729353237208	0.5455322773703041	0.18366626314227874	0.8364777084839203	0.5118673262293286	0.1559105009752274	0.7662110945774734	0.568525958498024	-0.04009837276422416	1.015337242124037	0.8584405341156489	-0.19503354687734914	0.7674002053544001	0.8594770315670537	-0.10836979402004279	0.7694368624817879	0.650988238043729	-0.04721592964806193	0.8356994261027162	0.5853470522103892	-0.04687900101033066	0.8030928644650566	0.5786042117167005	-0.025137509546693255	0.7549965740836381	0.6139475145012339	
34	0.7727272727272727	0.1934166768665657	0.44266616103208256	0.8225042172819956	0.12048038222556613	0.005716211422279405	0.825631748310875	0.08872543764078294	-0.47708520730398074	0.9043255518263942	0.06299576911832856	-0.43519973802755485	0.6697657570577608	0.12254318137550343	-0.4872996702504608	0.7379853287302673	0.07733149973561404	-0.5403390465370717	0.9477325269569639	-0.009584465554264534	0.45315207023363513	0.8656221468136629	-0.030017423933631396	-0.010834224644518387	0.8819216699887541	-0.06068675195773879	-0.45078176755113275	0.9225916920381213	-0.07999031993095695	-0.42671854839160583	0.6900544253630888	-0.12484160279694245	-0.46375861178050687	0.7764241404573758	-0.03754080322767501	-0.552709924339602	0.9907441857923033	0.13604004098349218	1.096499400697126	0.7997260782164092	0.14198738231287225	1.3554528760637212	0.7536339648862175	0.11838924899883022	1.2201760123588197	0.6981421238308707	0.3029729796121695	0.9895674152558686	0.7813210489491699	0.39929731218498166	0.70232224908985	0.7542697058909806	0.252218888128597	0.7700052058545968	0.5746294825185134	0.18625688949687721	0.8557949328587244	0.5668224861364966	0.17992647585173022	0.8594974006315346	0.5296196354292074	0.1574214792987877	0.7898950221932121	0.5712807588679485	-0.03664124405714474	1.0140884840809536	0.8511853286738249	-0.19353205008368066	0.766394475785263	0.8531701996160821	-0.09933526618599867	0.7833510613588966	0.6495228991893814	-0.04245257020362088	0.8593950767375012	0.5854913074783052	-0.039316797391192065	0.8247747076988905	0.5816536632816904	-0.013077602622838278	0.7749893914663772	0.6239522537110975	
